:SAMPLES-PER-SECOND 30
:FULLY-SPECIFIED
:DEGREES
1079
root  65.2574 39.8641 -0.656703 -53.4071 -85.3371 55.941
RightUpLeg  2.5513 -12.2225 -9.46159
RightLeg  10.2662 -9.48873 3.87372
RightFoot  -13.7129 -0.0249837 3.28349
RightToes  0.000482159 0.542163 -0.142577
Spine  10.5885 0.74497 3.16215
Spine1  -1.70504 1.69678 -3.65991
HEad  -0.0610387 -1.97405 -1.6459
LeftShoulder1  3.29078 -6.77997 -25.8048
LeftArm  -27.8881 19.8893 -12.5314
LeftForeArm  31.6199 -23.8135 -3.44768
LeftHand  -0.25398 0.0180481 5.50724
RightShoulder  1.22795 1.58155 17.5085
RightArm  -18.2996 -18.192 14.2115
RightForeArm  -0.983868 19.969 4.60082
RightHand  -2.2898 7.21353 -21.2649
LeftUpLeg  -20.2061 13.8281 -4.50842
LeftLeg  27.2889 3.80649 2.46309
LeftFoot  -7.25913 0.206644 -4.56823
LeftToes  1.06246e-005 4.65854e-005 -8.18502e-006
1080
root  64.8307 39.8722 -0.454841 -54.8168 -84.9017 57.6395
RightUpLeg  3.34073 -12.2767 -10.2092
RightLeg  9.53578 -9.68397 3.70477
RightFoot  -13.7104 -0.0181281 3.61678
RightToes  0.000482159 0.542163 -0.142577
Spine  10.6706 0.864209 2.93632
Spine1  -1.44172 1.86629 -4.23226
HEad  0.188561 -2.35778 -2.0185
LeftShoulder1  3.59206 -6.91821 -28.3455
LeftArm  -27.7927 20.8587 -15.2904
LeftForeArm  34.437 -24.5984 -3.4644
LeftHand  -0.25398 0.0180481 5.50724
RightShoulder  1.7476 3.0101 20.4263
RightArm  -15.7755 -20.1625 16.8071
RightForeArm  2.54731 21.8145 4.63743
RightHand  -1.8398 5.70608 -19.4669
LeftUpLeg  -21.5178 15.0701 -4.59548
LeftLeg  23.5339 3.96313 2.21801
LeftFoot  -7.01657 0.222305 -4.77208
LeftToes  1.06246e-005 4.65854e-005 -8.18502e-006
1081
root  64.3403 39.8341 -0.206046 -52.9777 -84.46 55.9489
RightUpLeg  4.42097 -12.3151 -10.9393
RightLeg  8.88613 -9.70168 3.611
RightFoot  -13.9855 0.0120908 4.61059
RightToes  0.000482159 0.542163 -0.142577
Spine  10.6652 0.915651 2.68122
Spine1  -0.592775 1.95291 -4.44226
HEad  -0.177524 -2.90852 -2.57652
LeftShoulder1  3.96724 -7.21537 -30.9306
LeftArm  -27.0661 21.5051 -18.4742
LeftForeArm  34.861 -23.6649 -3.23872
LeftHand  -0.25398 0.0180481 5.50724
RightShoulder  2.29409 4.24921 23.4003
RightArm  -14.0461 -21.1449 19.5083
RightForeArm  5.98987 22.5506 4.55906
RightHand  -1.59483 4.74543 -18.4828
LeftUpLeg  -22.7181 16.4731 -4.75043
LeftLeg  19.772 3.75085 1.853
LeftFoot  -6.68027 0.216482 -4.34022
LeftToes  1.06246e-005 4.65854e-005 -8.18502e-006
1082
root  63.7727 39.7446 0.103184 -48.3415 -84.0225 51.3687
RightUpLeg  5.72677 -12.371 -11.624
RightLeg  8.3921 -9.74466 3.58545
RightFoot  -14.457 0.0605076 5.8356
RightToes  0.000482159 0.542163 -0.142577
Spine  10.7028 0.876637 2.47741
Spine1  0.436625 1.9317 -4.36338
HEad  -0.75087 -3.24055 -2.96631
LeftShoulder1  4.43451 -7.69683 -33.5158
LeftArm  -25.9248 22.2154 -21.9694
LeftForeArm  33.4801 -21.6372 -2.80508
LeftHand  -0.25398 0.0180481 5.50724
RightShoulder  2.68767 4.91937 25.8285
RightArm  -13.234 -21.1519 22.989
RightForeArm  9.46156 22.0832 4.33253
RightHand  -1.52312 4.70528 -17.7427
LeftUpLeg  -23.7651 17.7489 -4.84503
LeftLeg  16.3074 3.67307 1.34379
LeftFoot  -6.01592 0.200984 -3.54971
LeftToes  1.06246e-005 4.65854e-005 -8.18502e-006
1083
root  63.1164 39.6132 0.478622 -42.4379 -83.6513 45.5108
RightUpLeg  7.04475 -12.4646 -12.181
RightLeg  8.2555 -10.296 3.5019
RightFoot  -14.8664 0.0908778 6.23911
RightToes  0.000482159 0.542163 -0.142577
Spine  10.7298 0.762761 2.40961
Spine1  1.30926 1.80955 -4.1241
HEad  -1.15719 -3.03557 -3.07943
LeftShoulder1  4.95796 -8.21944 -36.1738
LeftArm  -24.4959 23.1458 -25.4412
LeftForeArm  31.5686 -18.9889 -2.25084
LeftHand  -0.25398 0.0180481 5.50724
RightShoulder  2.95722 5.26949 27.6853
RightArm  -12.8981 -20.8205 27.0243
RightForeArm  11.493 20.9038 4.15802
RightHand  -1.44026 4.68654 -16.8306
LeftUpLeg  -24.4171 17.4969 -3.95631
LeftLeg  13.4008 5.96424 0.405014
LeftFoot  -5.1084 0.199692 -3.09741
LeftToes  1.06246e-005 4.65854e-005 -8.18502e-006
1084
root  62.3733 39.435 0.922714 -36.4135 -83.317 39.5859
RightUpLeg  8.36161 -12.5775 -12.7229
RightLeg  8.35343 -10.7683 3.40855
RightFoot  -15.2658 0.124805 6.64704
RightToes  0.000482159 0.542163 -0.142577
Spine  10.5841 0.64256 2.37618
Spine1  2.12822 1.66135 -3.83429
HEad  -1.48986 -2.57147 -2.92675
LeftShoulder1  5.47674 -8.66046 -38.8111
LeftArm  -22.7638 24.1794 -28.7134
LeftForeArm  30.1232 -16.0774 -1.86273
LeftHand  -0.25398 0.0180481 5.50724
RightShoulder  3.15184 5.48226 29.0902
RightArm  -13.082 -20.5702 31.3115
RightForeArm  11.5613 19.4342 4.17309
RightHand  -1.27296 3.8739 -16.1857
LeftUpLeg  -24.9113 16.5046 -2.60087
LeftLeg  11.4544 10.1565 -0.612659
LeftFoot  -4.5044 0.205208 -2.97784
LeftToes  1.06246e-005 4.65854e-005 -8.18502e-006
1085
root  61.5469 39.2022 1.44612 -31.4553 -82.965 34.7473
RightUpLeg  9.81344 -12.7034 -13.5118
RightLeg  8.50054 -10.2847 3.36785
RightFoot  -15.8569 0.228129 8.48115
RightToes  0.000482159 0.542163 -0.142577
Spine  10.3158 0.58054 2.24191
Spine1  2.98542 1.60157 -3.68988
HEad  -1.91232 -2.35714 -2.30522
LeftShoulder1  5.89561 -8.97055 -40.9344
LeftArm  -21.1074 25.4756 -31.9746
LeftForeArm  30.2004 -13.5616 -1.88112
LeftHand  -0.25398 0.0180481 5.50724
RightShoulder  3.22531 5.47192 29.9643
RightArm  -14.2193 -20.5188 35.8786
RightForeArm  11.3102 17.8243 4.25863
RightHand  -1.11588 2.71819 -16.1571
LeftUpLeg  -25.5375 16.7209 -2.27311
LeftLeg  10.8547 13.8372 -0.946281
LeftFoot  -4.10889 0.172844 -2.34525
LeftToes  1.06246e-005 4.65854e-005 -8.18502e-006
1086
root  60.6144 38.9445 2.0683 -28.9735 -82.5853 32.3313
RightUpLeg  11.3341 -13.1264 -14.8391
RightLeg  9.04009 -9.2276 3.16458
RightFoot  -16.3333 0.357821 10.7423
RightToes  0.000482159 0.542163 -0.142577
Spine  10.1243 0.596463 1.91067
Spine1  3.58051 1.67808 -3.80863
HEad  -2.30932 -2.49436 -1.01325
LeftShoulder1  6.09413 -9.06722 -42.069
LeftArm  -20.202 27.4439 -35.3928
LeftForeArm  31.8772 -11.8426 -2.07931
LeftHand  -0.25398 0.0180481 5.50724
RightShoulder  3.19017 5.27353 30.3797
RightArm  -16.3021 -20.9269 40.4522
RightForeArm  12.3055 16.3079 4.21565
RightHand  -1.03575 2.11613 -16.1631
LeftUpLeg  -26.2717 18.7888 -3.66946
LeftLeg  11.8566 15.1985 -0.254019
LeftFoot  -3.01871 0.0672303 -0.707142
LeftToes  1.06246e-005 4.65854e-005 -8.18502e-006
